<svg id="Lag_1" data-name="Lag 1" xmlns="http://www.w3.org/2000/svg" width="164.94" height="171.47" viewBox="0 0 164.94 171.47"><defs><style>.cls-1,.cls-3{fill:none;stroke:orange;stroke-miterlimit:10;}.cls-1{stroke-width:4px;}.cls-2{fill:orange;}.cls-3{stroke-width:3px;}</style></defs><ellipse class="cls-1" cx="80.82" cy="68.81" rx="64.51" ry="20.67"/><path class="cls-1" d="M16.31,68.81c0,39.23,29.89,71,66.84,71"/><path class="cls-1" d="M145.34,68c0,39.68-27.82,71.78-62.19,71.78"/><path class="cls-2" d="M58.16,71.67C68,70,75.23,60.93,72.81,50.83,71.66,46,68.39,42,64.68,38.88c-2.05-1.73-5.7-3.64-6.75-6.21-2-4.89,2-8.31,5.41-11.07,1.5-1.22-.63-3.33-2.12-2.12-3.12,2.53-6.82,5.79-7,10.14-.18,4,2.68,6.86,5.58,9.19,4.77,3.82,9.85,8.09,10.45,14.63.74,8-5.34,14.07-12.87,15.34-1.9.31-1.09,3.21.8,2.89Z"/><path class="cls-2" d="M80.93,39.14c5.78-1.6,8.29-7.6,8.08-13.22a17.45,17.45,0,0,0-3-9c-.86-1.32-2-2.4-2.94-3.63-2.92-3.64-2-6.91.77-10.16C85.09,1.64,83-.49,81.73,1c-3.14,3.74-5.1,8-2.23,12.54,2,3.08,4.7,5.16,5.88,8.8,1.58,4.87.47,12.34-5.24,13.92a1.5,1.5,0,0,0,.79,2.9Z"/><path class="cls-3" d="M162.06,87.41c0-15-1.5-16.5-16.72-16.5"/><path class="cls-3" d="M162.06,84.2c0,15-2,16.5-22.69,16.5"/><path class="cls-1" d="M2.19,123.67c0-9.62,11.73-19.78,22.83-19.78"/><path class="cls-1" d="M160.5,123.57c0-9.62-11.73-19.78-22.83-19.78"/><path class="cls-1" d="M2.41,121.38c0,22.14,41.66,45.52,81.11,45.52"/><path class="cls-1" d="M160.5,121.38c0,22.14-41.66,45.52-81.11,45.52"/><path class="cls-2" d="M103,70.49c7.24-2.4,8.83-11.71,7.82-18.34a24.08,24.08,0,0,0-4.17-10c-1.22-1.77-2.86-3.49-3.36-5.66-.8-3.47,1-6.54,2.86-9.23,1.12-1.58-1.48-3.08-2.59-1.51-3.49,4.91-4.76,10.1-1.34,15.39,2.11,3.26,4.31,5.87,5.3,9.77,1.33,5.25.91,14.66-5.32,16.71-1.82.61-1,3.51.8,2.9Z"/></svg>