<svg id="Lag_1" data-name="Lag 1" xmlns="http://www.w3.org/2000/svg" width="164.94" height="171.47" viewBox="0 0 164.94 171.47"><defs><style>.cls-1,.cls-2{fill:none;}.cls-1,.cls-2,.cls-3{stroke:orange;stroke-miterlimit:10;}.cls-1{stroke-width:3px;}.cls-2,.cls-3{stroke-width:4px;}.cls-3{fill:orange;}</style></defs><path class="cls-1" d="M84.84,39.16c6.55,19.19.41,37.71-13.73,41.42"/><path class="cls-1" d="M100.77,42.58c7.63,23.07,1.68,44.82-13.31,48.63"/><path class="cls-1" d="M114,48.26c7.69,23.26,2.09,45.08-12.53,48.8"/><path class="cls-1" d="M126,58.72c6.58,19.76,1.75,38.34-10.78,41.55"/><path class="cls-1" d="M135.51,70.51c5.37,16.19,3.42,30.91-4.36,32.89"/><path class="cls-1" d="M73,39.15c4.88,14.4-.27,28.41-11.52,31.34"/><path class="cls-1" d="M52.75,45.84c0,32.23,41.78,58.31,93.4,58.31"/><path class="cls-1" d="M39.39,54.19c0,33.5,47.19,60.61,105.5,60.61"/><path class="cls-1" d="M29.14,63.54c0,34.42,50.68,62.28,113.31,62.28"/><path class="cls-1" d="M22.53,73.56c0,34.54,50.9,62.49,113.8,62.49"/><path class="cls-1" d="M16.81,88.45c0,32.08,50.07,58,112,58"/><circle class="cls-1" cx="79.89" cy="104.15" r="65"/><path class="cls-1" d="M27.08,112.78c0,4.84-4.6,8.75-10.27,8.75"/><path class="cls-1" d="M33.72,120c0,5.78-5.94,10.46-13.28,10.46"/><path class="cls-1" d="M42.31,125.82C42.31,134.2,35,141,25.93,141"/><path class="cls-1" d="M55.61,133.26c0,10.28-8.88,18.61-19.85,18.61"/><path class="cls-1" d="M68,138.35c0,11.65-10,21.08-22.32,21.08"/><path class="cls-1" d="M82.06,141c0,14.32-8.58,25.91-19.17,25.91"/><path class="cls-1" d="M98.09,143.31c0,14.28-8.14,25.84-18.2,25.84"/><line class="cls-2" x1="82.24" y1="88.59" x2="144.99" y2="28.85"/><line class="cls-2" x1="101.6" y1="95.96" x2="88.37" y2="8.21"/><ellipse class="cls-3" cx="146.15" cy="27.75" rx="3.37" ry="6.46" transform="translate(34.19 125.7) rotate(-51.93)"/><ellipse class="cls-3" cx="87.54" cy="6.69" rx="6.46" ry="3.37" transform="translate(-0.02 13.12) rotate(-8.57)"/><path class="cls-1" d="M110.64,146c0,10.11-3,18.29-6.67,18.29"/></svg>