<svg id="Lag_1" data-name="Lag 1" xmlns="http://www.w3.org/2000/svg" width="164.94" height="171.47" viewBox="0 0 164.94 171.47"><defs><style>.cls-1{fill:#fff;}.cls-1,.cls-2{stroke:orange;stroke-miterlimit:10;stroke-width:3px;}.cls-2{fill:none;}</style></defs><ellipse class="cls-1" cx="61.77" cy="19.72" rx="18.75" ry="17.67"/><ellipse class="cls-1" cx="103.99" cy="19.72" rx="18.75" ry="17.67"/><line class="cls-2" x1="47.08" y1="71.14" x2="47.08" y2="165.23"/><line class="cls-2" x1="67.85" y1="162.39" x2="68.17" y2="110.63"/><path class="cls-2" d="M83.69,163.54V64.44h18.14l30.87-12s8.38-12.81-8.06-15L101.83,48.32l-54.75-.58s-7.45-1.46-10.86,6.72-8.07,24-8.07,24l10.55,27s2.48,4.93,6.21,3.76,2.17,56.44,2.17,56.44,10.49,9.44,21.09-3.51c0,0,5.39,12.24,17.07.29,0,0,8.84,11.6,18.75-.88,0,0,12,11.76,18.75-.58V107.58s9.38,4.2,16.79-27.67L130.16,54.1"/><line class="cls-2" x1="103.83" y1="110.32" x2="104.14" y2="161.79"/><line class="cls-2" x1="122.6" y1="74.83" x2="122.6" y2="158"/></svg>