<svg id="Lag_1" data-name="Lag 1" xmlns="http://www.w3.org/2000/svg" width="164.94" height="171.47" viewBox="0 0 164.94 171.47"><defs><style>.cls-1,.cls-2,.cls-3,.cls-4,.cls-6{fill:#fff;}.cls-1,.cls-3,.cls-8{stroke:#000;}.cls-1,.cls-3,.cls-4,.cls-6,.cls-7,.cls-8{stroke-miterlimit:10;}.cls-1{stroke-width:3px;}.cls-3{isolation:isolate;}.cls-4{stroke:#020202;}.cls-5{fill:#020202;}.cls-6{stroke:#050505;}.cls-7{stroke:#fff;}</style></defs><ellipse class="cls-1" cx="82.47" cy="85.73" rx="80.97" ry="84.23"/><path d="M112.93,109.16s2,26.38-25.38,36.3-53.4-8.74-55-21.55c0,0-12.41-41.5,13.39-54.53,0,0,8.67-6.81,8.38-8.74S113,98.44,113,98.44,113.92,109.16,112.93,109.16Z"/><path class="cls-2" d="M111,109.22s1.87,25.73-24,35.44-50.52-8.58-52-21c0,0-11.76-40.53,12.66-53.19,0,0,8.21-6.59,7.92-8.52S111,98.82,111,98.82,111.92,109.22,111,109.22Z"/><path class="cls-3" d="M58.89,48.09,51.56,63l53.22,32.71s5.7-5.79,13.52-1l15.64-14-3.05-21.34L89.33,39Z"/><path class="cls-4" d="M89,23.48S59.33,19,59,45.84c0,0-1,12.65,25.52,5.58,0,0,7.58-.38,12.74,7.83,0,0,4.82,10.83,13.13,9,0,0,6.4-1.66,12.94,11,0,0,22.57,16.19,27.79-6.86,0,0,6.19-16-14.86-26.44,0,0-9.29-25-26.21-19.35A32.65,32.65,0,0,1,89,23.48Z"/><path d="M102.17,102.57a.2.2,0,0,1,0-.16c0-.11.1-.16.15-.27s.24-.43.39-.64.25-.43.39-.59a2.35,2.35,0,0,1,.5-.54,1.28,1.28,0,0,1,.29-.27c.1,0,.2-.16.3-.21s.29-.27.44-.38.34-.27.49-.43.29-.16.44-.26a1.17,1.17,0,0,1,.45-.06l.34-.05h.39a2.72,2.72,0,0,1,.64.05,1.36,1.36,0,0,1,.44.11.34.34,0,0,1,.25.11.71.71,0,0,0,.3.1.27.27,0,0,1,.19.11l.15.16a1.65,1.65,0,0,1,.39.48,3.23,3.23,0,0,1,.2.65.47.47,0,0,1,0,.37.6.6,0,0,1-.25.27c-.44.06-.59-.37-.78-.64a1.45,1.45,0,0,0-.4-.38l-.29-.16-.39-.16a1.48,1.48,0,0,0-.45-.11,1,1,0,0,0-.54.22c-.15.11-.34.16-.49.27l-.34.26a6.94,6.94,0,0,0-.55.54c-.19.22-.34.43-.54.64s-.24.22-.34.33a3.6,3.6,0,0,1-.34.32,9.08,9.08,0,0,1-.74.59c-.1,0-.2.16-.3.21l-.29.16-.3.16s0,.06-.1.06-.14-.16-.14-.27a.5.5,0,0,1,0-.38.87.87,0,0,1,.19-.37,4.27,4.27,0,0,1,.74-.86l.25-.27a2.94,2.94,0,0,1,.24-.21,5.28,5.28,0,0,1,.44-.38c.15-.1.2-.21.35-.27a1.07,1.07,0,0,0,.39-.26c.1-.11.25-.16.35-.27a1.31,1.31,0,0,1,.34-.22c.05,0,.15,0,.2-.1,0,.1-.2.26-.3.32s-.44.43-.64.64-.59.65-.88.91c-.1.11-.2.16-.3.27s-.14.16-.19.27-.3.37-.3.32a2,2,0,0,1,.35-.53,6.55,6.55,0,0,1,1-1.08,4.35,4.35,0,0,1,.79-.69,5.7,5.7,0,0,1,.73-.54,5.31,5.31,0,0,1,.69-.38l.3-.1a1.35,1.35,0,0,1,.49-.06,3.12,3.12,0,0,1,.74.06,2.6,2.6,0,0,1,.49.26.84.84,0,0,1,.34.49s0,.1.1.21.05.11.1.16"/><ellipse class="cls-5" cx="67.11" cy="89.49" rx="15.25" ry="9.13" transform="translate(-42.06 65.12) rotate(-40.55)"/><ellipse class="cls-2" cx="67.05" cy="89.32" rx="14.39" ry="8.25" transform="translate(-41.94 64.94) rotate(-40.5)"/><ellipse cx="60.45" cy="95.52" rx="3.23" ry="2.54" transform="translate(-49.81 120.44) rotate(-70.4)"/><ellipse cx="48.19" cy="83" rx="13.8" ry="9.08" transform="translate(-47.79 83.36) rotate(-60.07)"/><path class="cls-6" d="M47,108.37s4.28-3.81,14.17,2c0,0,10.72.7,16-6.38,5.46-7.34-.44,16.78-15.05,17.8,0,0-19.82,2.31-20.41-6v-2.84S46.88,109.28,47,108.37Z"/><ellipse class="cls-2" cx="48.08" cy="83.17" rx="13.23" ry="8.27" transform="translate(-47.99 83.32) rotate(-60.06)"/><ellipse cx="48.02" cy="90.21" rx="3.23" ry="2.54" transform="translate(-53.04 105.4) rotate(-70.52)"/><path class="cls-6" d="M40.74,113.61s2.31,10.73-10,10.46c0,0-14.8,2-17.85-7.61s.39.85,7.62-1.5Z"/><path class="cls-7" d="M47.72,103.7c-7.45,17.3-27.4,11.81-27.4,11.81a12.71,12.71,0,0,1-9.74-9.79C7.11,91.55,21.39,86.46,21.39,86.46c18.12-3.64,25.41,7.61,25.41,7.61Z"/><path class="cls-2" d="M45.4,103.63c-6.5,14.68-23.9,10-23.9,10A11,11,0,0,1,13,105.34C10,93.3,22.39,89,22.39,89c15.81-3.09,22.16,6.46,22.16,6.46Z"/><path d="M53.87,140.69a11.36,11.36,0,0,0,1.23,1.07,4.41,4.41,0,0,0,1.38.54c.24,0,.44.11.64.16l.59.32a10.37,10.37,0,0,0,1.37.7c.5.16,1.14.48,1.48-.16a3.46,3.46,0,0,0,.29-.7,1.85,1.85,0,0,1,.3-.64,6.3,6.3,0,0,0,.79-3.38.68.68,0,0,0-.49-.54,1.37,1.37,0,0,0-1.23.54,4.38,4.38,0,0,1-1,.75,4.1,4.1,0,0,1-1.33.38c-.24.05-.49,0-.73.05a2.17,2.17,0,0,0-.25.05c-.15.06-.1,0-.05.06l-.15,1.45a1.82,1.82,0,0,1,.45.21l.73.38c.25.16.54.26.79.42a2,2,0,0,0,.79.17c.34,0,.69.16,1-.17a1.58,1.58,0,0,0,.35-1,4.43,4.43,0,0,1,.29-1.23,1,1,0,0,0-.29-1.29,1,1,0,0,0-.69-.11,4.13,4.13,0,0,0-1.82,2.47,1.43,1.43,0,0,0,.34.86c.1.1.35.21.4.37l.88-1a13.53,13.53,0,0,1-1.43-.7,16.4,16.4,0,0,0-1.52-.64,3.75,3.75,0,0,0-.79-.33c-.24-.05-.49-.1-.69-.16a1.09,1.09,0,0,0-.68-.26A.92.92,0,0,0,54,140c-.54,1.35,1.38,1.83,2.16,2a4.6,4.6,0,0,1,1.33.7,8.17,8.17,0,0,0,1.57.7.74.74,0,0,0,1-.27.88.88,0,0,0-.25-1.07c-.39-.22-.88-.33-1.28-.54a12.34,12.34,0,0,0-1.13-.7,9.15,9.15,0,0,0-1.28-.43,2.47,2.47,0,0,1-.59-.21.36.36,0,0,0-.24-.11c-.15,0,0-.16.05.16v.49l-.45.37h0l-.39-.11c.2.11.35.22.54.33a3,3,0,0,0,.64.16,9.8,9.8,0,0,1,1.28.53,11,11,0,0,1,1.23.54,6.41,6.41,0,0,0,1.38.64.73.73,0,0,0,.88-.59.63.63,0,0,0,0-.43,2,2,0,0,0-.49-.85c-.05-.06-.15-.11-.2-.17s0,0,0,0,.15.38.1.32,0-.1,0-.1a2.27,2.27,0,0,0,.44-.54.6.6,0,0,1,.25-.27l.05-.05c0-.06,0,0-.05,0l-.64-.38.05.06-.1-.43c0-.27,0-.22,0-.11a.79.79,0,0,0-.1.32l-.14.59c0,.22,0,.38-.1.59a.52.52,0,0,1,0,.27c0,.11,0,.11.1-.11l.54-.21a4.48,4.48,0,0,1-1.67-.65,2.58,2.58,0,0,0-2-.53.79.79,0,0,0-.49,1,.83.83,0,0,0,.29.43c.49.32.94.1,1.43,0a12.52,12.52,0,0,0,1.57-.27,4,4,0,0,0,1.43-.75,6,6,0,0,1,.64-.54l.15-.16s.09,0,0,0c.15-.11,0-.11-.29,0l-.49-.54a4.48,4.48,0,0,1-.1.81,2.79,2.79,0,0,1-.3.91c-.14.32-.29.59-.44.91s-.2.59-.29.86l.64-.38s-.15-.05-.2-.1l-.3-.11c-.19-.11-.34-.16-.54-.27a11.26,11.26,0,0,0-1.42-.75,12.33,12.33,0,0,1-1.43-.43,3.51,3.51,0,0,1-1.13-1c-.69-.7-1.77.42-1,1.12Z"/><path class="cls-8" d="M80.92,75.28s-7.33-1.45,0-2.31c0,0,3.54-.53,5.12,5.52,0,0,1.28,7.35-1.28,9.28S86,76.89,80.92,75.28Z"/><path class="cls-2" d="M104.87,94.42s6.55-6,11.61,1S111.56,107,111.56,107l-1.82-7.94-4.87-4.66"/><path class="cls-8" d="M59.72,68.31s4.28,6.16,2.12-.91c0,0-.89-3.44-7.08-2.52,0,0-7.28,1.71-8,4.82S56.23,64.23,59.72,68.31Z"/><path d="M101.68,97.37s4.82-10.24,15-4.18-4.48,15.65-5.76,16c0,0-10.23,2.26-13.42-4.18,0,0,14.36,7.67,19.18-5.09a5.12,5.12,0,0,0-2.46-5.79A8.16,8.16,0,0,0,103,98C103,98,101.68,99.62,101.68,97.37Z"/><path class="cls-5" d="M63,125.52s-21.49,2.89-26.81,0c0,0,2.71,14.58,18.2,11.69S63,125.52,63,125.52Z"/><path class="cls-2" d="M61.71,126.65s-19,2.32-23.71,0c0,0,2.4,11.57,16.13,9.29S61.71,126.65,61.71,126.65Z"/></svg>