<svg id="Lag_1" data-name="Lag 1" xmlns="http://www.w3.org/2000/svg" width="164.94" height="171.47" viewBox="0 0 164.94 171.47"><defs><style>.cls-1,.cls-2,.cls-3,.cls-4{fill:#fff;stroke-miterlimit:10;}.cls-1,.cls-3{stroke:#000;}.cls-1{stroke-width:3px;}.cls-2{stroke:#050505;}.cls-4{stroke:#070707;}</style></defs><ellipse class="cls-1" cx="82.47" cy="85.73" rx="80.97" ry="84.23"/><path class="cls-2" d="M58.13,64.08c6,.13,9.21-1.84,11-6.71,1.61-4.42,4.68-6.5,9.06-7,2-.23,4-.37,6-.72,3.51-.63,5.36-2.82,4.48-6.29-.78-3.12-1.94-6.56-4-8.85C76.6,25.6,67.28,18.8,54.52,20.33a96.94,96.94,0,0,0-17,3.36c-4,1.23-4.86,4-4.19,8.2,1,6.19.81,6.51-5.44,8-2.55.61-4.78,2-4.64,4.64a53.06,53.06,0,0,0,2.06,12.67c.91,3,3.39,3.32,6,1.47,1.47-1,2.73-2.37,4.19-3.42,3.25-2.34,6-2.16,8.09,1.21C47.25,62.4,53.08,63.17,58.13,64.08Z"/><path class="cls-3" d="M163.44,80.32c-.31-15.39-4.7-28.75-13.85-40.44a10.73,10.73,0,0,0-4-3.27A70.26,70.26,0,0,0,135,33c-8.3-2-16.63-2-23.43,3.79-3.77,3.21-6.78,7.53-9.37,11.81-3.78,6.23-7.26,12.61-13,17.37-5.23,4.38-10.92,6.55-17.88,4-4.55-1.7-8.3.42-10,5.25-2.88,8-1.47,15.52,3.32,22.44,11.09,16,27.77,20.46,45.87,21.58,2.49.15,5.21-1.67,7.64-2.92,3.56-1.85,6.74-4.87,10.49-5.84a109.53,109.53,0,0,1,20.53-3.28c8.82-.58,12.08-2.89,13.12-11.64C162.91,90.25,163.1,85,163.44,80.32Z"/><path class="cls-4" d="M19.46,103.5a19.84,19.84,0,0,0-3.05,2.1c-4.41,4.23-6.47,14.32-3.86,20a76.1,76.1,0,0,0,6.05,10.94C26.24,147.9,36,156.52,48.81,161c4.32,1.51,8.47,1.92,12.66-.37,3-1.66,6.46-2.67,9.49-4.38,5.68-3.2,11.53-6.24,16.71-10.18,6.46-4.92,7-9.66,1.7-16.11-4.39-5.3-9.78-9.78-15-14.3-3.53-3.06-7.76-2.85-11.85-1.4-1.74.62-3.31,1.68-5,2.39-5.33,2.2-10.56,2.35-15.42-1.6-3.47-2.81-6.75-5.9-10.34-8.53S24.39,102.4,19.46,103.5Z"/></svg>