<svg id="Lag_1" data-name="Lag 1" xmlns="http://www.w3.org/2000/svg" width="164.94" height="171.47" viewBox="0 0 164.94 171.47"><defs><style>.cls-1{fill:none;stroke:orange;stroke-miterlimit:10;stroke-width:2px;}</style></defs><path class="cls-1" d="M28.48,79.35l99.34,1.45a9.69,9.69,0,0,1,4.36,1.11L161.8,97.43s8.91,6.76-33.53,14.18l-40-2,6.28-8.6L64,98.32l-5.73,8.19-50-7.59s-10.93-5.52,0-13.29L3.4,52.08H14.82Z"/><polygon class="cls-1" points="58.26 106.51 34.67 144.24 44.77 148.38 88.31 109.59 94.59 100.99 63.99 98.32 58.26 106.51"/><polygon class="cls-1" points="71.78 79.98 56.5 41.79 67.69 41.79 100.16 79.98 71.78 79.98"/><polyline class="cls-1" points="132.9 95.38 142.18 95.38 147.37 92.72 147.37 89.87"/><rect class="cls-1" x="36.62" y="86.67" width="5.59" height="5.95"/><rect class="cls-1" x="47.53" y="86.89" width="5.59" height="5.95"/><rect class="cls-1" x="59.04" y="86.89" width="5.59" height="5.95"/><rect class="cls-1" x="69.88" y="86.89" width="5.59" height="5.95"/><rect class="cls-1" x="80.64" y="86.89" width="5.59" height="5.95"/><rect class="cls-1" x="91.8" y="86.89" width="5.59" height="5.95"/><rect class="cls-1" x="102.87" y="86.89" width="5.59" height="5.95"/><path class="cls-1" d="M103.8,47.43h38.86s7.14,1,8.45-10.45c1.42-12.32-11-8.87-14.56-5.62-1.07,1,2.54-12.39-9-13s-11,8.13-11,8.13-6.34-4.65-9.25,3.2c0,0-8.23-1.1-9.78,9.29C96.55,45.12,103.8,47.43,103.8,47.43Z"/><path class="cls-1" d="M13.16,29.38H45.9s6,.77,7.12-8.48c1.2-10-9.25-7.21-12.27-4.56-.9.78,2.14-10.06-7.6-10.53s-9.3,6.6-9.3,6.6S18.5,8.63,16.05,15c0,0-6.93-.89-8.24,7.55C7,27.51,13.16,29.38,13.16,29.38Z"/><path class="cls-1" d="M79.24,160.25h53.13s9.77.95,11.56-10.45c1.94-12.32-15-8.88-19.91-5.62-1.46,1,3.47-12.39-12.34-13s-15.09,8.13-15.09,8.13-8.68-4.65-12.65,3.2c0,0-11.25-1.1-13.37,9.29C69.32,157.94,79.24,160.25,79.24,160.25Z"/></svg>