<svg id="Lag_1" data-name="Lag 1" xmlns="http://www.w3.org/2000/svg" width="1920" height="1080" viewBox="0 0 1920 1080"><defs><style>.cls-1{fill:#d2e3e6;}.cls-2{fill:#fae6fb;}.cls-3{fill:orange;}.cls-4{fill:#8c5f46;}.cls-5{fill:#e8d4b3;}.cls-6{fill:#bdb4cf;}.cls-7{fill:#aca5c3;}.cls-8{fill:#eaacc3;}.cls-9{fill:#f98080;}.cls-10{fill:#10505b;}.cls-11{fill:#fff;}.cls-12{fill:#f8c186;}.cls-13{fill:none;stroke:#ffc755;stroke-miterlimit:10;stroke-width:2px;}</style></defs><polygon class="cls-1" points="0 1 0 356.5 1920 194 1920 1 0 1"/><polygon class="cls-2" points="0 356.5 0 1080 1920 1083 1920 194 0 356.5"/><path class="cls-3" d="M974,96S837,98,681,216c0,0-156.43,123.2-249,134-35.89,4.19-56,46.3-66.43,79.47a126.52,126.52,0,0,0-.33,74.49C382.38,560.69,424.36,674.19,499,732c102,79,263,115,263,115l239,33h233.08S1438,873,1527,827s149-71,154-198c4.69-119.06-71.48-235.49-165.07-272.65a269.76,269.76,0,0,1-44.26-22.21c-45.18-28.39-140.35-88.74-198.43-129.39C1195,150,1053,83,974,96Z"/><path class="cls-4" d="M871,310.44S918,322,923,339s78-55,45-100c0,0,41-27,17-65-18.28-28.95-64.75-13.79-85.84-4.93a27.59,27.59,0,0,1-20.24.42C863.5,163.81,832.27,159,807,198c-35,54-14,83-64,83-35.65,0-46.39,47.27-49.62,74.41-1.83,15.39,9.85,29.4,25.35,29.61a23.28,23.28,0,0,0,7.27-1s-4-36,3-51,37-32,80-34Z"/><path class="cls-5" d="M1182.74,768.1s17.14,35.4,24.29,48.1c5.73,10.19,57.88-25,57.88-25l5.56-4.59s16.65-26.46-23.74-5.84a9.23,9.23,0,0,0-2.1,1.36c-.59.53-3,1.57-12.6,2.33-13.94,1.11-19.85-30-19.85-30Z"/><path d="M828.38,916a103.27,103.27,0,0,0,17.46,1.26h35.64A103.27,103.27,0,0,0,898.94,916v34.2a107.67,107.67,0,0,0-17.46-1.26H845.84a107.67,107.67,0,0,0-17.46,1.26Z"/><path d="M1026.74,958.83c0,16.92.18,23.4,1.44,31.32h-38.7c1.26-7.92,1.62-15.12,1.62-30.77V866.14a181,181,0,0,0-1.44-26.28c7.38.36,12.42.54,26.28.54h52c15.84,0,21.78-.18,30.24-1.26v34.2c-7.92-.9-14.94-1.26-30.06-1.26h-41.4V901.6h33.84c14,0,20.88-.36,28.8-1.26v33.3c-7.92-.9-15.12-1.26-28.8-1.26h-33.84Z"/><path d="M1326.07,914.56c0,47.52-29,79-72.71,79-44.1,0-72.54-30.78-72.54-78.47,0-47.52,28.44-77.94,72.72-77.94S1326.07,867.4,1326.07,914.56Zm-37.44.36c0-29.16-13.32-46.8-35.09-46.8-22,0-35.46,17.82-35.46,46.8,0,29.34,13.5,47.52,35.46,47.52C1275.31,962.44,1288.63,944.44,1288.63,914.92Z"/><path d="M1442.71,990.15c-12.42,0-19.79.18-26.63.54,1.08-6.3,1.44-14.22,1.44-26.27v-95c0-12.6-.36-20.34-1.44-29h39.23c-1.26,9.36-1.44,14.4-1.44,28.44v89.28h43.56c15.3,0,21.42-.18,29.88-1.26v34.55c-6.66-.9-15.48-1.26-29.88-1.26Z"/><path d="M1651.15,840.4c-1.08,7.38-1.44,13.5-1.44,26.64v96.47c0,12.42.36,19.08,1.44,26.64h-39.6c1.08-7,1.44-14.58,1.44-26.64V867c0-13.5-.36-18.72-1.44-26.64Z"/><path d="M1886.23,914.56c0,47.52-29,79-72.72,79-44.1,0-72.54-30.78-72.54-78.47,0-47.52,28.44-77.94,72.72-77.94S1886.23,867.4,1886.23,914.56Zm-37.44.36c0-29.16-13.32-46.8-35.1-46.8-22,0-35.46,17.82-35.46,46.8,0,29.34,13.5,47.52,35.46,47.52C1835.47,962.44,1848.79,944.44,1848.79,914.92Z"/><path class="cls-6" d="M758,497s-56,49-51,93c0,0,10,62,55,66s254,4,254,4-18,25-4,79,21,74,21,74h33l30-131s46,73,81,88c0,0,30.29,2,38.14-11,0,0-80.14-163-94.14-185-11.72-18.42-16.06-42-92.11-41.07-1.28,0-2.57,0-3.89.07-80,2-104,5-124,9l-21-45Z"/><path class="cls-5" d="M1034,807.3s1,33,2.25,45.1c1,9.75,60.35-1,60.35-1l6.66-1.8s25-15.28-18.43-12.09a10.49,10.49,0,0,0-2.36.39c-.73.23-3.24.27-11.91-2.19-12.6-3.57-2.49-28.71-2.49-28.71Z"/><path class="cls-7" d="M878,659.54S1004,598,1053,596s49,18,45,75c0,0-27,141-30,145s-36,0-36,0c-1.56,0-43.53-80.22-17-154Z"/><path class="cls-7" d="M812,497h68l21,47s-72,8-84,7S783,531,812,497Z"/><path class="cls-8" d="M748.15,502c-3.6-20-28.44-124.64-25.94-145.82s7-35.18,44-50.18,45.08-17,45.08-17,28,26.39,59.52,15.69S983,409.5,983,409.5s33.88,30.5,51,31.5v27.92L884.31,493l0,9Z"/><path class="cls-9" d="M753,314s60.77-29.54,93.6,95.58c0,0,10.34,29.11,31.47,36.18l24.53,5.15L1055.36,483l-4.61,27.54-167.69-3.61s-45.87-4.62-81.87-25.84l-74.56-91.65S707.54,325,753,314Z"/><path class="cls-9" d="M894.46,369.21s12,50.05-8.86,52.14C885.6,421.35,941.82,420.75,894.46,369.21Z"/><path class="cls-5" d="M809,291.25s13.07,26.9,67.53,17.3V277.33s-1.09-18,9.81-10.26,21.78,29.68,62.08-7.7h9.75a4.35,4.35,0,0,0,4.31-4.94L959,229s37.26-92.34-70-33.42a13,13,0,0,0-3.73,3.11c-1.38,1.68-4.87,3.64-13.07-.87,0,0-11.58-18.87-21.85-3a18.57,18.57,0,0,0-2.79,12.88c.54,3.62,1.76,8,4.46,11.3C852,219,833,283.56,809,291.25Z"/><path d="M113.52,801.17A193,193,0,0,0,115,774.53V677.16a201.24,201.24,0,0,0-1.44-26.28c8.46.36,14.94.54,26.46.54H179.4c35.64,0,55.26,17.1,55.26,48.42,0,32-20.52,51.12-55.44,51.12H150.78v23a233.71,233.71,0,0,0,1.44,27.18Zm64.08-80.81c12.6,0,20-7,20-19.44s-7-18.9-20-18.9H150.78v38.34Z"/><path d="M463.61,725.58c0,47.51-29,79-72.71,79-44.1,0-72.54-30.78-72.54-78.47,0-47.52,28.44-77.94,72.72-77.94S463.61,678.42,463.61,725.58Zm-37.43.36c0-29.16-13.32-46.8-35.1-46.8-22,0-35.46,17.82-35.46,46.8,0,29.33,13.5,47.51,35.46,47.51C412.86,773.45,426.18,755.45,426.18,725.94Z"/><path d="M644.51,801.17c-1.08-5.76-3.24-13.14-8.82-28.08-5.76-15.66-7.92-19.8-12.42-23.76-3.77-3.41-8.27-4.86-14-4.86H590.88V774c0,12.24.36,18.9,1.44,27.18h-38.7c1.08-8.28,1.44-13.68,1.44-27V677.34a191.89,191.89,0,0,0-1.44-26.46c7.92.36,14.58.54,26.82.54h46.79c29.16,0,46.08,15.12,46.08,41,0,12.78-3.6,22.86-10.62,29.52-4.5,4.14-8.28,6.12-17.1,9,9.18,2.88,13.32,7,19.08,19.79,2.7,5.76,5.22,11.88,13.32,31.32,2,5,4.14,9.54,8.64,19.08ZM619,713.7c10.61,0,17.09-6.48,17.09-16.74,0-10.08-5.76-15.3-16.92-15.3H590.88v32Z"/><path d="M850.43,774a204.81,204.81,0,0,0,1.44,27.18H812.09A199.65,199.65,0,0,0,813.53,774V683.28H792.29a243.53,243.53,0,0,0-27.17,1.26V650.16a246.64,246.64,0,0,0,26.81,1.26h78.84a238.08,238.08,0,0,0,28.08-1.26v34.38a232.11,232.11,0,0,0-28.08-1.26H850.43Z"/><path class="cls-10" d="M1161,537l63-100s14-20-22-18l-175.44-.14S1013,418,1007,433l-55,97s-83.43,11-102,14Z"/><ellipse class="cls-11" cx="1100" cy="476" rx="16" ry="14"/><path class="cls-12" d="M909.46,439l-4.7,12.33,21.7,4.55a.92.92,0,0,0,.9-1.5l-13.57-16.11A2.55,2.55,0,0,0,909.46,439Z"/><path class="cls-13" d="M853.37,214.5s9.46,3.41,6.3,15.34-23.26,7.25-23.65-1.7c-.35-8,3.24-11.75,13-14.14"/></svg>