<svg id="Lag_1" data-name="Lag 1" xmlns="http://www.w3.org/2000/svg" width="1920" height="1080" viewBox="0 0 1920 1080"><defs><style>.cls-1{fill:#d2e3e6;}.cls-2{fill:#fae6fb;}.cls-3{fill:orange;}.cls-4{fill:#8c5f46;}.cls-5{fill:#e8d4b3;}.cls-6{fill:#bdb4cf;}.cls-7{fill:#aca5c3;}.cls-8{fill:#eaacc3;}.cls-9{fill:#f98080;}.cls-10{fill:#10505b;}.cls-11{fill:#fff;}.cls-12{fill:#f8c186;}.cls-13{fill:none;stroke:#ffc755;stroke-miterlimit:10;stroke-width:2px;}</style></defs><polygon class="cls-1" points="0 1 0 427 1920 232.27 1920 1 0 1"/><polygon class="cls-2" points="0 379.31 0 1067 1920 1069.85 1920 224.85 0 379.31"/><path class="cls-3" d="M852.6,332.32s-98.1,1.62-209.8,96.84c0,0-112,99.42-178.3,108.14-25.7,3.38-40.13,37.36-47.57,64.13a114.57,114.57,0,0,0-.24,60.11c12.28,45.78,42.34,137.37,95.78,184,73,63.75,188.33,92.8,188.33,92.8L871.93,965h166.9s146-5.65,209.75-42.77,106.69-57.3,110.27-159.78c3.36-96.09-51.18-190-118.2-220A186.75,186.75,0,0,1,1209,524.5c-32.35-22.92-100.5-71.62-142.09-104.42C1010.85,375.9,909.17,321.83,852.6,332.32Z"/><path class="cls-4" d="M834,399.36s37.22,9.68,41.18,23.91,61.76-46,35.63-83.72c0,0,32.46-22.6,13.46-54.41-14.48-24.24-51.27-11.54-68-4.12a20.78,20.78,0,0,1-16,.34c-12.21-4.75-36.94-8.76-57,23.87-27.71,45.21-11.08,69.48-50.68,69.48-28.22,0-36.73,39.57-39.29,62.29-1.45,12.89,7.8,24.62,20.08,24.79a17.33,17.33,0,0,0,5.75-.85s-3.17-30.14,2.38-42.69,29.3-26.79,63.34-28.47Z"/><path class="cls-5" d="M1080.84,782.5s13.57,29.63,19.23,40.26c4.54,8.53,45.84-20.89,45.84-20.89l4.4-3.85s13.18-22.15-18.8-4.88a7,7,0,0,0-1.66,1.13c-.47.45-2.38,1.31-10,2-11,.93-15.72-25.16-15.72-25.16Z"/><path d="M852.1,888.39a57.37,57.37,0,0,0,9.7.7h19.8a57.37,57.37,0,0,0,9.7-.7v19a59.82,59.82,0,0,0-9.7-.7H861.8a59.82,59.82,0,0,0-9.7.7Z"/><path d="M962.3,912.19c0,9.4.1,13,.8,17.41H941.6c.7-4.4.9-8.41.9-17.11v-51.8a100.57,100.57,0,0,0-.8-14.6c4.1.2,6.9.3,14.6.3h28.9c8.8,0,12.1-.1,16.8-.7v19a135.29,135.29,0,0,0-16.7-.7h-23v16.4h18.8a128.75,128.75,0,0,0,16-.7v18.5a130.89,130.89,0,0,0-16-.7H962.3Z"/><path d="M1128.6,887.59c0,26.4-16.1,43.91-40.4,43.91-24.5,0-40.3-17.11-40.3-43.61s15.8-43.3,40.4-43.3S1128.6,861.39,1128.6,887.59Zm-20.8.2c0-16.2-7.4-26-19.5-26s-19.7,9.9-19.7,26c0,16.3,7.5,26.4,19.7,26.4S1107.8,904.19,1107.8,887.79Z"/><path d="M1193.4,929.6c-6.9,0-11,.1-14.8.3a89.85,89.85,0,0,0,.8-14.61v-52.8a121.16,121.16,0,0,0-.8-16.1h21.8c-.7,5.2-.8,8-.8,15.8v49.6h24.2c8.5,0,11.9-.1,16.6-.7v19.2a130.76,130.76,0,0,0-16.6-.69Z"/><path d="M1309.2,846.39a92.59,92.59,0,0,0-.8,14.8v53.6a96.81,96.81,0,0,0,.8,14.81h-22a95.9,95.9,0,0,0,.8-14.81v-53.6a93.4,93.4,0,0,0-.8-14.8Z"/><path d="M1439.8,887.59c0,26.4-16.1,43.91-40.4,43.91-24.5,0-40.3-17.11-40.3-43.61s15.8-43.3,40.4-43.3S1439.8,861.39,1439.8,887.59Zm-20.8.2c0-16.2-7.4-26-19.5-26s-19.7,9.9-19.7,26c0,16.3,7.5,26.4,19.7,26.4S1419,904.19,1419,887.79Z"/><path class="cls-6" d="M744.51,555.54s-44.34,41-40.38,77.86c0,0,7.91,51.9,43.55,55.25S948.81,692,948.81,692s-14.26,20.93-3.17,66.13,16.63,62,16.63,62h26.1l23.78-109.67s36.43,61.12,64.14,73.67c0,0,24,1.68,30.21-9.2,0,0-63.46-136.46-74.55-154.88-9.28-15.42-12.72-35.17-72.94-34.38l-3.08.06c-63.34,1.67-82.35,4.18-98.19,7.53l-16.62-37.67Z"/><path class="cls-5" d="M963.06,815.31s.81,27.59,1.78,37.76c.79,8.16,47.79-.85,47.79-.85l5.27-1.5s19.76-12.79-14.59-10.12a7.89,7.89,0,0,0-1.87.33c-.57.19-2.56.22-9.43-1.84-10-3-2-24-2-24Z"/><path class="cls-7" d="M839.53,691.61s99.77-51.52,138.58-53.19,38.8,15.07,35.63,62.79c0,0-21.38,118-23.76,121.38s-28.46,0-28.46,0c-1.24,0-34.47-67.15-13.5-128.92Z"/><path class="cls-7" d="M787.27,555.54h53.85l16.62,39.35s-57,6.69-66.51,5.86S764.31,584,787.27,555.54Z"/><path class="cls-8" d="M736.71,559.73c-2.85-16.75-22.52-104.35-20.54-122.08s5.55-29.45,34.82-42,35.71-14.23,35.71-14.23,22.13,22.09,47.12,13.14,88.85,87.74,88.85,87.74,26.82,25.53,40.39,26.37V532L844.53,552.19l0,7.54Z"/><path class="cls-9" d="M740.55,402.34s48.12-24.73,74.12,80c0,0,8.19,24.36,24.91,30.29L859,517l121,26.85-3.64,23.05-132.8-3s-36.31-3.87-64.82-21.64l-59-76.72S704.55,411.53,740.55,402.34Z"/><path class="cls-9" d="M852.57,448.56s9.53,41.9-7,43.65C845.55,492.21,890.07,491.71,852.57,448.56Z"/><path class="cls-5" d="M784.89,383.3s10.35,22.52,53.48,14.48V371.64s-.86-15,7.76-8.59,17.25,24.85,49.17-6.44H903a3.59,3.59,0,0,0,3.42-4.14l-2.76-21.29s29.51-77.3-55.44-28a10.21,10.21,0,0,0-3,2.6c-1.09,1.41-3.85,3.05-10.35-.73,0,0-9.16-15.8-17.29-2.51a16.23,16.23,0,0,0-2.22,10.78c.43,3,1.4,6.73,3.53,9.46C818.94,322.81,803.87,376.86,784.89,383.3Z"/><path d="M408.56,768.61a107.21,107.21,0,0,0,.8-14.8v-54.1a111.8,111.8,0,0,0-.8-14.6c4.7.2,8.3.3,14.7.3h21.91c19.8,0,30.7,9.5,30.7,26.9,0,17.8-11.4,28.4-30.8,28.4H429.26v12.8a127.45,127.45,0,0,0,.81,15.1Zm35.61-44.9c7,0,11.1-3.9,11.1-10.8s-3.9-10.5-11.1-10.5H429.26v21.3Z"/><path d="M603.07,726.61c0,26.4-16.1,43.9-40.4,43.9-24.51,0-40.31-17.1-40.31-43.6s15.8-43.3,40.4-43.3S603.07,700.41,603.07,726.61Zm-20.8.2c0-16.2-7.4-26-19.51-26s-19.7,9.9-19.7,26c0,16.3,7.5,26.4,19.7,26.4S582.27,743.21,582.27,726.81Z"/><path d="M703.56,768.61c-.6-3.2-1.8-7.3-4.9-15.6-3.2-8.7-4.4-11-6.9-13.2a10.93,10.93,0,0,0-7.8-2.7h-10.2v16.4a105.42,105.42,0,0,0,.8,15.1h-21.5a98.75,98.75,0,0,0,.8-15v-53.8a106.61,106.61,0,0,0-.8-14.7c4.4.2,8.1.3,14.9.3h26c16.21,0,25.61,8.4,25.61,22.8,0,7.1-2,12.7-5.9,16.4-2.5,2.3-4.6,3.4-9.5,5,5.1,1.6,7.4,3.9,10.6,11,1.5,3.2,2.9,6.6,7.4,17.4,1.1,2.8,2.3,5.3,4.8,10.6ZM689.36,720c5.9,0,9.5-3.6,9.5-9.3s-3.2-8.5-9.4-8.5h-15.7V720Z"/><path d="M818,753.51a113.78,113.78,0,0,0,.8,15.1h-22.1a110.92,110.92,0,0,0,.8-15.1v-50.4h-11.8a135.33,135.33,0,0,0-15.1.7v-19.1a137.06,137.06,0,0,0,14.9.7h43.8a132.56,132.56,0,0,0,15.61-.7v19.1a129.13,129.13,0,0,0-15.61-.7H818Z"/><path class="cls-10" d="M1063.62,589l49.89-83.72s11.09-16.74-17.42-15.07l-138.92-.12s-10.74-.72-15.49,11.84l-43.55,81.21s-66.07,9.21-80.77,11.72Z"/><ellipse class="cls-11" cx="1015.32" cy="537.96" rx="12.67" ry="11.72"/><path class="cls-12" d="M864.44,507l-3.72,10.32,17.18,3.81a.77.77,0,0,0,.71-1.25l-10.74-13.49A2,2,0,0,0,864.44,507Z"/><path class="cls-13" d="M820,319s7.49,2.86,5,12.85-18.42,6.06-18.73-1.43c-.28-6.69,2.56-9.83,10.28-11.84"/></svg>