<svg id="Lag_1" data-name="Lag 1" xmlns="http://www.w3.org/2000/svg" width="1920" height="1080" viewBox="0 0 1920 1080"><defs><style>.cls-1{fill:#d2e3e6;}.cls-2{fill:#fae6fb;}.cls-3{fill:orange;}.cls-4{fill:#8c5f46;}.cls-5{fill:#e8d4b3;}.cls-6{fill:#bdb4cf;}.cls-7{fill:#aca5c3;}.cls-8{fill:#eaacc3;}.cls-9{fill:#f98080;}.cls-10{fill:#10505b;}.cls-11{fill:#fff;}.cls-12{fill:#f8c186;}.cls-13{fill:none;stroke:#ffc755;stroke-miterlimit:10;stroke-width:2px;}</style></defs><polygon class="cls-1" points="0 1 0 414 1920 225.22 1920 1 0 1"/><polygon class="cls-2" points="0 379.31 0 1067 1920 1069.85 1920 224.85 0 379.31"/><path class="cls-3" d="M852.6,332.32s-98.1,1.62-209.8,96.84c0,0-112,99.42-178.3,108.14-25.7,3.38-40.13,37.36-47.57,64.13a114.57,114.57,0,0,0-.24,60.11c12.28,45.78,42.34,137.37,95.78,184,73,63.75,188.33,92.8,188.33,92.8L871.93,965h166.9s146-5.65,209.75-42.77,106.69-57.3,110.27-159.78c3.36-96.09-51.18-190-118.2-220A186.75,186.75,0,0,1,1209,524.5c-32.35-22.92-100.5-71.62-142.09-104.42C1010.85,375.9,909.17,321.83,852.6,332.32Z"/><path class="cls-4" d="M834,399.36s37.22,9.68,41.18,23.91,61.76-46,35.63-83.72c0,0,32.46-22.6,13.46-54.41-14.48-24.24-51.27-11.54-68-4.12a20.78,20.78,0,0,1-16,.34c-12.21-4.75-36.94-8.76-57,23.87-27.71,45.21-11.08,69.48-50.68,69.48-28.22,0-36.73,39.57-39.29,62.29-1.45,12.89,7.8,24.62,20.08,24.79a17.33,17.33,0,0,0,5.75-.85s-3.17-30.14,2.38-42.69,29.3-26.79,63.34-28.47Z"/><path class="cls-5" d="M1080.84,782.5s13.57,29.63,19.23,40.26c4.54,8.53,45.84-20.89,45.84-20.89l4.4-3.85s13.18-22.15-18.8-4.88a7,7,0,0,0-1.66,1.13c-.47.45-2.38,1.31-10,2-11,.93-15.72-25.16-15.72-25.16Z"/><path d="M844.92,896.8a68.84,68.84,0,0,0,11.64.84h23.76A68.84,68.84,0,0,0,892,896.8v22.8a71.78,71.78,0,0,0-11.64-.84H856.56a71.78,71.78,0,0,0-11.64.84Z"/><path d="M977.16,925.36c0,11.27.12,15.6,1,20.87h-25.8c.84-5.27,1.08-10.07,1.08-20.51V863.56a120.69,120.69,0,0,0-1-17.52c4.92.24,8.28.36,17.52.36h34.68c10.56,0,14.52-.12,20.16-.84v22.8a162.35,162.35,0,0,0-20-.84h-27.6V887.2h22.56a154.49,154.49,0,0,0,19.2-.84v22.2a157.06,157.06,0,0,0-19.2-.84H977.16Z"/><path d="M1176.71,895.84c0,31.68-19.31,52.67-48.47,52.67-29.4,0-48.36-20.51-48.36-52.31s19-52,48.48-52S1176.71,864.4,1176.71,895.84Zm-25,.24c0-19.44-8.88-31.2-23.4-31.2s-23.64,11.88-23.64,31.2c0,19.56,9,31.67,23.64,31.67S1151.76,915.76,1151.76,896.08Z"/><path d="M1254.48,946.23c-8.28,0-13.2.12-17.76.36.72-4.2,1-9.47,1-17.51V865.72a145.39,145.39,0,0,0-1-19.32h26.16c-.84,6.24-1,9.6-1,19v59.52h29c10.19,0,14.27-.13,19.91-.84v23c-4.44-.6-10.32-.84-19.91-.84Z"/><path d="M1393.43,846.4c-.72,4.92-1,9-1,17.76v64.32a115.94,115.94,0,0,0,1,17.75H1367a115,115,0,0,0,1-17.75V864.16c0-9-.24-12.48-1-17.76Z"/><path d="M1550.15,895.84c0,31.68-19.32,52.67-48.48,52.67-29.4,0-48.36-20.51-48.36-52.31s19-52,48.48-52S1550.15,864.4,1550.15,895.84Zm-25,.24c0-19.44-8.88-31.2-23.4-31.2s-23.64,11.88-23.64,31.2c0,19.56,9,31.67,23.64,31.67S1525.19,915.76,1525.19,896.08Z"/><path class="cls-6" d="M744.51,555.54s-44.34,41-40.38,77.86c0,0,7.91,51.9,43.55,55.25S948.81,692,948.81,692s-14.26,20.93-3.17,66.13,16.63,62,16.63,62h26.1l23.78-109.67s36.43,61.12,64.14,73.67c0,0,24,1.68,30.21-9.2,0,0-63.46-136.46-74.55-154.88-9.28-15.42-12.72-35.17-72.94-34.38l-3.08.06c-63.34,1.67-82.35,4.18-98.19,7.53l-16.62-37.67Z"/><path class="cls-5" d="M963.06,815.31s.81,27.59,1.78,37.76c.79,8.16,47.79-.85,47.79-.85l5.27-1.5s19.76-12.79-14.59-10.12a7.89,7.89,0,0,0-1.87.33c-.57.19-2.56.22-9.43-1.84-10-3-2-24-2-24Z"/><path class="cls-7" d="M839.53,691.61s99.77-51.52,138.58-53.19,38.8,15.07,35.63,62.79c0,0-21.38,118-23.76,121.38s-28.46,0-28.46,0c-1.24,0-34.47-67.15-13.5-128.92Z"/><path class="cls-7" d="M787.27,555.54h53.85l16.62,39.35s-57,6.69-66.51,5.86S764.31,584,787.27,555.54Z"/><path class="cls-8" d="M736.71,559.73c-2.85-16.75-22.52-104.35-20.54-122.08s5.55-29.45,34.82-42,35.71-14.23,35.71-14.23,22.13,22.09,47.12,13.14,88.85,87.74,88.85,87.74,26.82,25.53,40.39,26.37V532L844.53,552.19l0,7.54Z"/><path class="cls-9" d="M740.55,402.34s48.12-24.73,74.12,80c0,0,8.19,24.36,24.91,30.29L859,517l121,26.85-3.64,23.05-132.8-3s-36.31-3.87-64.82-21.64l-59-76.72S704.55,411.53,740.55,402.34Z"/><path class="cls-9" d="M852.57,448.56s9.53,41.9-7,43.65C845.55,492.21,890.07,491.71,852.57,448.56Z"/><path class="cls-5" d="M784.89,383.3s10.35,22.52,53.48,14.48V371.64s-.86-15,7.76-8.59,17.25,24.85,49.17-6.44H903a3.59,3.59,0,0,0,3.42-4.14l-2.76-21.29s29.51-77.3-55.44-28a10.21,10.21,0,0,0-3,2.6c-1.09,1.41-3.85,3.05-10.35-.73,0,0-9.16-15.8-17.29-2.51a16.23,16.23,0,0,0-2.22,10.78c.43,3,1.4,6.73,3.53,9.46C818.94,322.81,803.87,376.86,784.89,383.3Z"/><path d="M314.8,785.25a128.65,128.65,0,0,0,1-17.76V702.58a134.16,134.16,0,0,0-1-17.52c5.64.24,10,.36,17.64.36h26.28c23.76,0,36.84,11.4,36.84,32.28,0,21.35-13.68,34.07-37,34.07h-19v15.36a155.8,155.8,0,0,0,1,18.12Zm42.72-53.87c8.4,0,13.32-4.68,13.32-13s-4.68-12.6-13.32-12.6H339.64v25.56Z"/><path d="M548.2,734.86c0,31.67-19.32,52.67-48.48,52.67-29.4,0-48.36-20.52-48.36-52.32s19-52,48.48-52S548.2,703.42,548.2,734.86Zm-25,.23c0-19.43-8.88-31.19-23.4-31.19s-23.64,11.88-23.64,31.19c0,19.56,9,31.68,23.64,31.68S523.24,754.77,523.24,735.09Z"/><path d="M668.8,785.25c-.72-3.84-2.16-8.76-5.88-18.72-3.84-10.44-5.28-13.2-8.28-15.84-2.52-2.28-5.52-3.23-9.36-3.23H633v19.67a126.51,126.51,0,0,0,1,18.12H608.2a118.5,118.5,0,0,0,1-18V702.7a127.93,127.93,0,0,0-1-17.64c5.28.24,9.72.36,17.88.36h31.2c19.44,0,30.72,10.08,30.72,27.36,0,8.52-2.4,15.24-7.08,19.68-3,2.75-5.52,4.08-11.4,6,6.12,1.92,8.88,4.67,12.72,13.19,1.8,3.84,3.48,7.92,8.88,20.88,1.32,3.36,2.76,6.36,5.76,12.72Zm-17-58.31c7.08,0,11.4-4.32,11.4-11.16s-3.84-10.2-11.28-10.2H633v21.36Z"/><path d="M806.08,767.13a136.54,136.54,0,0,0,1,18.12H780.52a133.1,133.1,0,0,0,1-18.12V706.66H767.32a162.4,162.4,0,0,0-18.12.84V684.58a164.48,164.48,0,0,0,17.88.84h52.56a158.72,158.72,0,0,0,18.72-.84V707.5a154.74,154.74,0,0,0-18.72-.84H806.08Z"/><path class="cls-10" d="M1063.62,589l49.89-83.72s11.09-16.74-17.42-15.07l-138.92-.12s-10.74-.72-15.49,11.84l-43.55,81.21s-66.07,9.21-80.77,11.72Z"/><ellipse class="cls-11" cx="1015.32" cy="537.96" rx="12.67" ry="11.72"/><path class="cls-12" d="M864.44,507l-3.72,10.32,17.18,3.81a.77.77,0,0,0,.71-1.25l-10.74-13.49A2,2,0,0,0,864.44,507Z"/><path class="cls-13" d="M820,319s7.49,2.86,5,12.85-18.42,6.06-18.73-1.43c-.28-6.69,2.56-9.83,10.28-11.84"/></svg>