<svg id="Lag_1" data-name="Lag 1" xmlns="http://www.w3.org/2000/svg" width="164.94" height="171.47" viewBox="0 0 164.94 171.47"><defs><style>.cls-1,.cls-2{fill:#fff;stroke-miterlimit:10;}.cls-1{stroke:#000;stroke-width:3px;}.cls-2{stroke:#020202;}</style></defs><ellipse class="cls-1" cx="82.47" cy="85.73" rx="80.97" ry="84.23"/><path class="cls-2" d="M94.14,33.61C85.94,38.5,76.87,51.07,73,56.77a4.88,4.88,0,0,0-1.2-1.26l.36,0c.48-7.75,3-12,4.36-13.74a1.14,1.14,0,0,0,1.22.56,1.1,1.1,0,1,0-.45-2.16,1.43,1.43,0,0,0-.34.14v0l-.09.09a1,1,0,0,0-.24.23c-1.08,1.14-4.51,5.42-5.12,14.68a1.78,1.78,0,0,0-2.31.4C65,47.53,60.14,45,58.69,44.38a1.2,1.2,0,0,0-.31-.13l-.12,0v0a.87.87,0,0,0-.36,0,1.1,1.1,0,1,0,.44,2.15,1.09,1.09,0,0,0,.89-1c2,1.06,6,3.94,9.5,10.85l.15-.08a5.12,5.12,0,0,0-.57,1.64C62.55,54.15,49.14,46.19,39.63,45c-12.41-1.59-20.52-1.26-17.28,7.46S27.27,70.9,30,72.07s12-.42,12-.42S37,75.12,34.59,77s-3.11,7.26,1.89,12.48,14.28,11.28,19.23,9.9S67.18,93.53,68.45,86A47.16,47.16,0,0,1,71.3,75.82c2.52,8.84,4.9,13.05,5.93,12.83s1.52-5,.31-14a46.4,46.4,0,0,1,6.58,8.06c4.18,6.43,12,7.94,17,7.23s11.17-10,13.66-16.77-.25-11.43-3.25-12.19-8.94-2-8.94-2,9.12-2.26,11.16-4.42-.32-11.76-.83-21S104.89,27.19,94.14,33.61Z"/><ellipse cx="79.36" cy="101.48" rx="1.91" ry="1.87" transform="matrix(0.98, -0.2, 0.2, 0.98, -19.05, 18.35)"/><ellipse cx="80.31" cy="109.45" rx="1.91" ry="1.87" transform="translate(-20.66 18.71) rotate(-11.79)"/><ellipse cx="82.12" cy="118.11" rx="1.91" ry="1.87" transform="translate(-22.39 19.26) rotate(-11.79)"/><ellipse cx="86.48" cy="126.23" rx="1.91" ry="1.87" transform="translate(-23.96 20.33) rotate(-11.79)"/><ellipse cx="92.17" cy="132.23" rx="1.91" ry="1.87" transform="translate(-25.07 21.62) rotate(-11.79)"/><ellipse cx="99.76" cy="138.79" rx="1.91" ry="1.87" transform="translate(-26.25 23.3) rotate(-11.79)"/><ellipse cx="117.3" cy="142.78" rx="1.91" ry="1.87" transform="translate(-26.69 26.97) rotate(-11.79)"/><ellipse cx="134.28" cy="137.33" rx="1.91" ry="1.87" transform="translate(-25.22 30.32) rotate(-11.79)"/><ellipse cx="126.27" cy="142.13" rx="1.91" ry="1.87" transform="translate(-26.37 28.79) rotate(-11.79)"/><ellipse cx="107.92" cy="142.13" rx="1.91" ry="1.87" transform="translate(-26.76 25.04) rotate(-11.79)"/></svg>