<svg id="Lag_1" data-name="Lag 1" xmlns="http://www.w3.org/2000/svg" width="164.94" height="171.47" viewBox="0 0 164.94 171.47"><defs><style>.cls-1,.cls-2{fill:#fff;}.cls-1,.cls-2,.cls-3{stroke:#000;stroke-miterlimit:10;}.cls-1{stroke-width:3px;}.cls-3{fill:none;}</style></defs><ellipse class="cls-1" cx="82.47" cy="85.73" rx="80.97" ry="84.23"/><path class="cls-2" d="M66.19,59.1s6.06-1,13.13,12.88"/><path class="cls-2" d="M92,73.75s7.57-11.87,19.69-10.61"/><path class="cls-2" d="M89.67,93.19s16.16,2.51,26.77-7.46"/><path class="cls-2" d="M58.87,76.78S59.59,89.3,73.75,89.6"/><path class="cls-2" d="M95.48,54.56S99.27,44.46,120,40.67"/><path class="cls-3" d="M81.34,38.9c1,.51,7.58,7.83,6.06,13.39"/><path class="cls-3" d="M77.3,160.35c-14.39-72,34.34-144.17,34.34-144.17S62.82,27.09,46.1,80.59"/><path class="cls-2" d="M112.26,15.63s23,26.94,15.15,76.32"/><path class="cls-3" d="M125.32,95.51s-14.31,33.7-46,20.58"/><path class="cls-3" d="M44.81,84.45S37.09,106.06,71.3,114.8"/><polyline class="cls-2" points="41.97 83.63 45.62 82.23 48 86.67"/><polyline class="cls-2" points="124.52 90.48 126.44 94.31 130.92 92.4"/></svg>