<svg id="Lag_1" data-name="Lag 1" xmlns="http://www.w3.org/2000/svg" width="1920" height="540" viewBox="0 0 1920 540"><defs><style>.cls-1{fill:#fae6fb;}.cls-2{fill:#d2e3e6;}.cls-3{fill:orange;}</style></defs><polygon class="cls-1" points="0 321 0 538.95 1920 540 1920 228.94 0 321"/><polygon class="cls-2" points="0 1 0 427 1920 232.27 1920 1 0 1"/><path class="cls-3" d="M453.26,126.74s-68.14.89-145.73,53.91c0,0-77.8,55.36-123.84,60.21-17.85,1.88-27.87,20.81-33,35.71a51.65,51.65,0,0,0-.17,33.47C159,335.53,179.89,386.53,217,412.5c50.73,35.5,130.81,51.67,130.81,51.67L466.69,479H582.61S684,475.85,728.3,455.19s74.11-31.91,76.6-89c2.33-53.5-35.56-105.81-82.1-122.5a142.08,142.08,0,0,1-22-10C678.31,221,631,193.86,602.09,175.6,563.18,151,492.55,120.89,453.26,126.74Z"/></svg>